<svg xmlns="http://www.w3.org/2000/svg" viewBox="-21 -16 737.5234375 4642.3125" width="737.5234375" height="4642.3125"><style>/*
 * Licensed to the Apache Software Foundation (ASF) under one or more
 * contributor license agreements.  See the NOTICE file distributed with
 * this work for additional information regarding copyright ownership.
 * The ASF licenses this file to You under the Apache License, Version 2.0
 * (the "License"); you may not use this file except in compliance with
 * the License.  You may obtain a copy of the License at
 *
 *    http://www.apache.org/licenses/LICENSE-2.0
 *
 * Unless required by applicable law or agreed to in writing, software
 * distributed under the License is distributed on an "AS IS" BASIS,
 * WITHOUT WARRANTIES OR CONDITIONS OF ANY KIND, either express or implied.
 * See the License for the specific language governing permissions and
 * limitations under the License.
 */

svg g.label {
  font-size: 0.85rem;
  font-weight: normal;
  text-shadow: none;
  color: #333;
}

svg g.cluster rect {
  fill: #A0DFFF;
  stroke: #3EC0FF;
  stroke-width: 1px;
}

svg g.node rect {
  fill: #C3EBFF;
  stroke: #3EC0FF;
  stroke-width: 1px;
}

/* Highlight the SparkPlan node name */
svg text :first-child:not(.stageId-and-taskId-metrics) {
  font-weight: bold;
}

svg text {
  fill: #333;
}

svg path {
  stroke: #444;
  stroke-width: 1.5px;
}

/* Breaks the long string like file path when showing tooltips */
.tooltip-inner {
  word-wrap:break-word;
}

/* Breaks the long job url list when showing Details for Query in SQL */
.job-url {
  word-wrap: break-word;
}

svg g.node rect.selected {
  fill: #E25A1CFF;
  stroke: #317EACFF;
  stroke-width: 2px;
}

svg g.node rect.linked {
  fill: #FFC106FF;
  stroke: #317EACFF;
  stroke-width: 2px;
}

svg path.linked {
  fill: #317EACFF;
  stroke: #317EACFF;
  stroke-width: 2px;
}
</style><g><g class="output"><g class="clusters"><g class="cluster" id="cluster2" transform="translate(258.625,4209.578125)" style="opacity: 1;" data-original-title="" title=""><rect width="239.5" height="305.9562454223633" x="-119.75" y="-152.97812271118164" rx="5" ry="5"/><g class="label"><g transform="translate(114.75,-147.97812271118164)" text-anchor="end"><text><tspan xml:space="preserve" dy="1em" x="1">WholeStageCodegen (5)</tspan><tspan xml:space="preserve" dy="1em" x="1"> </tspan><tspan xml:space="preserve" dy="1em" x="1">duration: 1 ms</tspan></text></g></g></g><g class="cluster" id="cluster7" transform="translate(258.625,3654.1953125)" style="opacity: 1;" data-original-title="" title=""><rect width="213.265625" height="208.09687042236328" x="-106.6328125" y="-104.04843521118164" rx="5" ry="5"/><g class="label"><g transform="translate(101.6328125,-99.04843521118164)" text-anchor="end"><text><tspan xml:space="preserve" dy="1em" x="1">WholeStageCodegen (4)</tspan><tspan xml:space="preserve" dy="1em" x="1"> </tspan><tspan xml:space="preserve" dy="1em" x="1">duration: 14 ms</tspan></text></g></g></g><g class="cluster" id="cluster12" transform="translate(236.748046875,2220.515625)" style="opacity: 1;" data-original-title="" title=""><rect width="305.68359375" height="938.1437454223633" x="-152.841796875" y="-469.07187271118164" rx="5" ry="5"/><g class="label"><g transform="translate(147.841796875,-464.07187271118164)" text-anchor="end"><text><tspan xml:space="preserve" dy="1em" x="1">WholeStageCodegen (3)</tspan><tspan xml:space="preserve" dy="1em" x="1"> </tspan><tspan xml:space="preserve" dy="1em" x="1">duration: 41 ms</tspan></text></g></g></g><g class="cluster" id="cluster20" transform="translate(218.5859375,711.46875)" style="opacity: 1;" data-original-title="" title=""><rect width="447.171875" height="460.7312469482422" x="-223.5859375" y="-230.3656234741211" rx="5" ry="5"/><g class="label"><g transform="translate(218.5859375,-225.3656234741211)" text-anchor="end"><text><tspan xml:space="preserve" dy="1em" x="1">WholeStageCodegen (2)</tspan><tspan xml:space="preserve" dy="1em" x="1"> </tspan><tspan xml:space="preserve" dy="1em" x="1">duration: total (min, med, max <tspan class="stageId-and-taskId-metrics" style="display: none;">(stageId: taskId)</tspan>)</tspan><tspan xml:space="preserve" dy="1em" x="1">261 ms (12 ms, 37 ms, 38 ms <tspan class="stageId-and-taskId-metrics" style="display: none;">(stage 62.0: task 107)</tspan>)</tspan></text></g></g></g><g class="cluster" id="cluster24" transform="translate(218.5859375,227.15625)" style="opacity: 1;" data-original-title="" title=""><rect width="242.03125" height="190.23749542236328" x="-121.015625" y="-95.11874771118164" rx="5" ry="5"/><g class="label"><g transform="translate(116.015625,-90.11874771118164)" text-anchor="end"><text><tspan xml:space="preserve" dy="1em" x="1">WholeStageCodegen (1)</tspan><tspan xml:space="preserve" dy="1em" x="1"> </tspan><tspan xml:space="preserve" dy="1em" x="1">duration: 0 ms</tspan></text></g></g></g><g class="cluster" id="cluster28" transform="translate(568.21875,1490.1015625)" style="opacity: 1;" data-original-title="" title=""><rect width="264.609375" height="1046.0343704223633" x="-132.3046875" y="-523.0171852111816" rx="5" ry="5"/><g class="label"><g transform="translate(127.3046875,-518.0171852111816)" text-anchor="end"><text><tspan xml:space="preserve" dy="1em" x="1">WholeStageCodegen (1)</tspan><tspan xml:space="preserve" dy="1em" x="1"> </tspan><tspan xml:space="preserve" dy="1em" x="1">duration: 27 ms</tspan></text></g></g></g></g><g class="edgePaths"><g class="edgePath" style="opacity: 1;"><path class="path" d="M258.625,4476.734375L258.625,4482.567708333333C258.625,4488.401041666667,258.625,4500.067708333333,258.625,4511.734375C258.625,4523.401041666667,258.625,4535.067708333333,258.625,4540.901041666667L258.625,4546.734375" marker-end="url(http://localhost:4040/SQL/execution/?id=15#arrowhead236)" style="fill: none;"/><defs><marker id="arrowhead236" viewBox="0 0 10 10" refX="9" refY="5" markerUnits="strokeWidth" markerWidth="8" markerHeight="6" orient="auto"><path d="M 0 0 L 10 5 L 0 10 z" style="stroke-width: 1; stroke-dasharray: 1, 0;"/></marker></defs></g><g class="edgePath" style="opacity: 1;"><path class="path" d="M258.625,4308.15625L258.625,4313.989583333333C258.625,4319.822916666667,258.625,4331.489583333333,258.625,4343.15625C258.625,4354.822916666667,258.625,4366.489583333333,258.625,4378.15625C258.625,4389.822916666667,258.625,4401.489583333333,258.625,4407.322916666667L258.625,4413.15625" marker-end="url(http://localhost:4040/SQL/execution/?id=15#arrowhead237)" style="fill: none;"/><defs><marker id="arrowhead237" viewBox="0 0 10 10" refX="9" refY="5" markerUnits="strokeWidth" markerWidth="8" markerHeight="6" orient="auto"><path d="M 0 0 L 10 5 L 0 10 z" style="stroke-width: 1; stroke-dasharray: 1, 0;"/></marker></defs></g><g class="edgePath" style="opacity: 1;"><path class="path" d="M258.625,4174.578125L258.625,4180.411458333333C258.625,4186.244791666667,258.625,4197.911458333333,258.625,4209.578125C258.625,4221.244791666667,258.625,4232.911458333333,258.625,4238.744791666667L258.625,4244.578125" marker-end="url(http://localhost:4040/SQL/execution/?id=15#arrowhead238)" style="fill: none;"/><defs><marker id="arrowhead238" viewBox="0 0 10 10" refX="9" refY="5" markerUnits="strokeWidth" markerWidth="8" markerHeight="6" orient="auto"><path d="M 0 0 L 10 5 L 0 10 z" style="stroke-width: 1; stroke-dasharray: 1, 0;"/></marker></defs></g><g class="edgePath" style="opacity: 1;"><path class="path" d="M258.625,4006L258.625,4011.8333333333335C258.625,4017.6666666666665,258.625,4029.3333333333335,258.625,4041C258.625,4052.6666666666665,258.625,4064.3333333333335,258.625,4076C258.625,4087.6666666666665,258.625,4099.333333333333,258.625,4105.166666666667L258.625,4111" marker-end="url(http://localhost:4040/SQL/execution/?id=15#arrowhead239)" style="fill: none;"/><defs><marker id="arrowhead239" viewBox="0 0 10 10" refX="9" refY="5" markerUnits="strokeWidth" markerWidth="8" markerHeight="6" orient="auto"><path d="M 0 0 L 10 5 L 0 10 z" style="stroke-width: 1; stroke-dasharray: 1, 0;"/></marker></defs></g><g class="edgePath" style="opacity: 1;"><path class="path" d="M258.625,3872.421875L258.625,3878.2552083333335C258.625,3884.0885416666665,258.625,3895.7552083333335,258.625,3907.421875C258.625,3919.0885416666665,258.625,3930.7552083333335,258.625,3936.5885416666665L258.625,3942.421875" marker-end="url(http://localhost:4040/SQL/execution/?id=15#arrowhead240)" style="fill: none;"/><defs><marker id="arrowhead240" viewBox="0 0 10 10" refX="9" refY="5" markerUnits="strokeWidth" markerWidth="8" markerHeight="6" orient="auto"><path d="M 0 0 L 10 5 L 0 10 z" style="stroke-width: 1; stroke-dasharray: 1, 0;"/></marker></defs></g><g class="edgePath" style="opacity: 1;"><path class="path" d="M258.625,3703.84375L258.625,3709.6770833333335C258.625,3715.5104166666665,258.625,3727.1770833333335,258.625,3738.84375C258.625,3750.5104166666665,258.625,3762.1770833333335,258.625,3773.84375C258.625,3785.5104166666665,258.625,3797.1770833333335,258.625,3803.0104166666665L258.625,3808.84375" marker-end="url(http://localhost:4040/SQL/execution/?id=15#arrowhead241)" style="fill: none;"/><defs><marker id="arrowhead241" viewBox="0 0 10 10" refX="9" refY="5" markerUnits="strokeWidth" markerWidth="8" markerHeight="6" orient="auto"><path d="M 0 0 L 10 5 L 0 10 z" style="stroke-width: 1; stroke-dasharray: 1, 0;"/></marker></defs></g><g class="edgePath" style="opacity: 1;"><path class="path" d="M258.625,3499.546875L258.625,3505.3802083333335C258.625,3511.2135416666665,258.625,3522.8802083333335,258.625,3534.546875C258.625,3546.2135416666665,258.625,3557.8802083333335,258.625,3569.546875C258.625,3581.2135416666665,258.625,3592.8802083333335,258.625,3598.7135416666665L258.625,3604.546875" marker-end="url(http://localhost:4040/SQL/execution/?id=15#arrowhead242)" style="fill: none;"/><defs><marker id="arrowhead242" viewBox="0 0 10 10" refX="9" refY="5" markerUnits="strokeWidth" markerWidth="8" markerHeight="6" orient="auto"><path d="M 0 0 L 10 5 L 0 10 z" style="stroke-width: 1; stroke-dasharray: 1, 0;"/></marker></defs></g><g class="edgePath" style="opacity: 1;"><path class="path" d="M258.625,3312.390625L258.625,3318.2239583333335C258.625,3324.0572916666665,258.625,3335.7239583333335,258.625,3347.390625C258.625,3359.0572916666665,258.625,3370.7239583333335,258.625,3376.5572916666665L258.625,3382.390625" marker-end="url(http://localhost:4040/SQL/execution/?id=15#arrowhead243)" style="fill: none;"/><defs><marker id="arrowhead243" viewBox="0 0 10 10" refX="9" refY="5" markerUnits="strokeWidth" markerWidth="8" markerHeight="6" orient="auto"><path d="M 0 0 L 10 5 L 0 10 z" style="stroke-width: 1; stroke-dasharray: 1, 0;"/></marker></defs></g><g class="edgePath" style="opacity: 1;"><path class="path" d="M258.625,2803.765625L258.625,2809.5989583333335C258.625,2815.4322916666665,258.625,2827.0989583333335,258.625,2838.765625C258.625,2850.4322916666665,258.625,2862.0989583333335,258.625,2867.9322916666665L258.625,2873.765625" marker-end="url(http://localhost:4040/SQL/execution/?id=15#arrowhead244)" style="fill: none;"/><defs><marker id="arrowhead244" viewBox="0 0 10 10" refX="9" refY="5" markerUnits="strokeWidth" markerWidth="8" markerHeight="6" orient="auto"><path d="M 0 0 L 10 5 L 0 10 z" style="stroke-width: 1; stroke-dasharray: 1, 0;"/></marker></defs></g><g class="edgePath" style="opacity: 1;"><path class="path" d="M258.625,2635.1875L258.625,2641.0208333333335C258.625,2646.8541666666665,258.625,2658.5208333333335,258.625,2670.1875C258.625,2681.8541666666665,258.625,2693.5208333333335,258.625,2705.1875C258.625,2716.8541666666665,258.625,2728.5208333333335,258.625,2734.3541666666665L258.625,2740.1875" marker-end="url(http://localhost:4040/SQL/execution/?id=15#arrowhead245)" style="fill: none;"/><defs><marker id="arrowhead245" viewBox="0 0 10 10" refX="9" refY="5" markerUnits="strokeWidth" markerWidth="8" markerHeight="6" orient="auto"><path d="M 0 0 L 10 5 L 0 10 z" style="stroke-width: 1; stroke-dasharray: 1, 0;"/></marker></defs></g><g class="edgePath" style="opacity: 1;"><path class="path" d="M258.625,2465.890625L258.625,2471.7239583333335C258.625,2477.5572916666665,258.625,2489.2239583333335,258.625,2500.890625C258.625,2512.5572916666665,258.625,2524.2239583333335,258.625,2530.0572916666665L258.625,2535.890625" marker-end="url(http://localhost:4040/SQL/execution/?id=15#arrowhead246)" style="fill: none;"/><defs><marker id="arrowhead246" viewBox="0 0 10 10" refX="9" refY="5" markerUnits="strokeWidth" markerWidth="8" markerHeight="6" orient="auto"><path d="M 0 0 L 10 5 L 0 10 z" style="stroke-width: 1; stroke-dasharray: 1, 0;"/></marker></defs></g><g class="edgePath" style="opacity: 1;"><path class="path" d="M258.625,2332.3125L258.625,2338.1458333333335C258.625,2343.9791666666665,258.625,2355.6458333333335,258.625,2367.3125C258.625,2378.9791666666665,258.625,2390.6458333333335,258.625,2396.4791666666665L258.625,2402.3125" marker-end="url(http://localhost:4040/SQL/execution/?id=15#arrowhead247)" style="fill: none;"/><defs><marker id="arrowhead247" viewBox="0 0 10 10" refX="9" refY="5" markerUnits="strokeWidth" markerWidth="8" markerHeight="6" orient="auto"><path d="M 0 0 L 10 5 L 0 10 z" style="stroke-width: 1; stroke-dasharray: 1, 0;"/></marker></defs></g><g class="edgePath" style="opacity: 1;"><path class="path" d="M218.5859375,2163.015625L218.5859375,2174.8020833333335C218.5859375,2186.5885416666665,218.5859375,2210.1614583333335,222.082935199536,2227.78125C225.57993289907202,2245.4010416666665,232.57392829814407,2257.0677083333335,236.07092599768006,2262.9010416666665L239.56792369721606,2268.734375" marker-end="url(http://localhost:4040/SQL/execution/?id=15#arrowhead248)" style="fill: none;"/><defs><marker id="arrowhead248" viewBox="0 0 10 10" refX="9" refY="5" markerUnits="strokeWidth" markerWidth="8" markerHeight="6" orient="auto"><path d="M 0 0 L 10 5 L 0 10 z" style="stroke-width: 1; stroke-dasharray: 1, 0;"/></marker></defs></g><g class="edgePath" style="opacity: 1;"><path class="path" d="M218.5859375,1958.71875L218.5859375,1964.5520833333333C218.5859375,1970.3854166666667,218.5859375,1982.0520833333333,218.5859375,1993.71875C218.5859375,2005.3854166666667,218.5859375,2017.0520833333333,218.5859375,2034.671875C218.5859375,2052.2916666666665,218.5859375,2075.8645833333335,218.5859375,2087.6510416666665L218.5859375,2099.4375" marker-end="url(http://localhost:4040/SQL/execution/?id=15#arrowhead249)" style="fill: none;"/><defs><marker id="arrowhead249" viewBox="0 0 10 10" refX="9" refY="5" markerUnits="strokeWidth" markerWidth="8" markerHeight="6" orient="auto"><path d="M 0 0 L 10 5 L 0 10 z" style="stroke-width: 1; stroke-dasharray: 1, 0;"/></marker></defs></g><g class="edgePath" style="opacity: 1;"><path class="path" d="M218.5859375,1700.84375L218.5859375,1706.6770833333333C218.5859375,1712.5104166666667,218.5859375,1724.1770833333333,218.5859375,1735.84375C218.5859375,1747.5104166666667,218.5859375,1759.1770833333333,218.5859375,1770.84375C218.5859375,1782.5104166666667,218.5859375,1794.1770833333333,218.5859375,1800.0104166666667L218.5859375,1805.84375" marker-end="url(http://localhost:4040/SQL/execution/?id=15#arrowhead250)" style="fill: none;"/><defs><marker id="arrowhead250" viewBox="0 0 10 10" refX="9" refY="5" markerUnits="strokeWidth" markerWidth="8" markerHeight="6" orient="auto"><path d="M 0 0 L 10 5 L 0 10 z" style="stroke-width: 1; stroke-dasharray: 1, 0;"/></marker></defs></g><g class="edgePath" style="opacity: 1;"><path class="path" d="M218.5859375,1513.6875L218.5859375,1519.5208333333333C218.5859375,1525.3541666666667,218.5859375,1537.0208333333333,218.5859375,1548.6875C218.5859375,1560.3541666666667,218.5859375,1572.0208333333333,218.5859375,1577.8541666666667L218.5859375,1583.6875" marker-end="url(http://localhost:4040/SQL/execution/?id=15#arrowhead251)" style="fill: none;"/><defs><marker id="arrowhead251" viewBox="0 0 10 10" refX="9" refY="5" markerUnits="strokeWidth" markerWidth="8" markerHeight="6" orient="auto"><path d="M 0 0 L 10 5 L 0 10 z" style="stroke-width: 1; stroke-dasharray: 1, 0;"/></marker></defs></g><g class="edgePath" style="opacity: 1;"><path class="path" d="M218.5859375,881.484375L218.5859375,887.3177083333334C218.5859375,893.1510416666666,218.5859375,904.8177083333334,218.5859375,916.484375C218.5859375,928.1510416666666,218.5859375,939.8177083333334,218.5859375,951.484375C218.5859375,963.1510416666666,218.5859375,974.8177083333334,218.5859375,986.484375C218.5859375,998.1510416666666,218.5859375,1009.8177083333334,218.5859375,1015.6510416666666L218.5859375,1021.484375" marker-end="url(http://localhost:4040/SQL/execution/?id=15#arrowhead252)" style="fill: none;"/><defs><marker id="arrowhead252" viewBox="0 0 10 10" refX="9" refY="5" markerUnits="strokeWidth" markerWidth="8" markerHeight="6" orient="auto"><path d="M 0 0 L 10 5 L 0 10 z" style="stroke-width: 1; stroke-dasharray: 1, 0;"/></marker></defs></g><g class="edgePath" style="opacity: 1;"><path class="path" d="M218.5859375,605.03125L218.5859375,610.8645833333334C218.5859375,616.6979166666666,218.5859375,628.3645833333334,218.5859375,640.03125C218.5859375,651.6979166666666,218.5859375,663.3645833333334,218.5859375,669.1979166666666L218.5859375,675.03125" marker-end="url(http://localhost:4040/SQL/execution/?id=15#arrowhead253)" style="fill: none;"/><defs><marker id="arrowhead253" viewBox="0 0 10 10" refX="9" refY="5" markerUnits="strokeWidth" markerWidth="8" markerHeight="6" orient="auto"><path d="M 0 0 L 10 5 L 0 10 z" style="stroke-width: 1; stroke-dasharray: 1, 0;"/></marker></defs></g><g class="edgePath" style="opacity: 1;"><path class="path" d="M218.5859375,436.453125L218.5859375,442.2864583333333C218.5859375,448.1197916666667,218.5859375,459.7864583333333,218.5859375,471.453125C218.5859375,483.1197916666667,218.5859375,494.7864583333333,218.5859375,506.453125C218.5859375,518.1197916666666,218.5859375,529.7864583333334,218.5859375,535.6197916666666L218.5859375,541.453125" marker-end="url(http://localhost:4040/SQL/execution/?id=15#arrowhead254)" style="fill: none;"/><defs><marker id="arrowhead254" viewBox="0 0 10 10" refX="9" refY="5" markerUnits="strokeWidth" markerWidth="8" markerHeight="6" orient="auto"><path d="M 0 0 L 10 5 L 0 10 z" style="stroke-width: 1; stroke-dasharray: 1, 0;"/></marker></defs></g><g class="edgePath" style="opacity: 1;"><path class="path" d="M218.5859375,267.875L218.5859375,273.7083333333333C218.5859375,279.5416666666667,218.5859375,291.2083333333333,218.5859375,302.875C218.5859375,314.5416666666667,218.5859375,326.2083333333333,218.5859375,337.875C218.5859375,349.5416666666667,218.5859375,361.2083333333333,218.5859375,367.0416666666667L218.5859375,372.875" marker-end="url(http://localhost:4040/SQL/execution/?id=15#arrowhead255)" style="fill: none;"/><defs><marker id="arrowhead255" viewBox="0 0 10 10" refX="9" refY="5" markerUnits="strokeWidth" markerWidth="8" markerHeight="6" orient="auto"><path d="M 0 0 L 10 5 L 0 10 z" style="stroke-width: 1; stroke-dasharray: 1, 0;"/></marker></defs></g><g class="edgePath" style="opacity: 1;"><path class="path" d="M218.5859375,81.4375L218.5859375,87.27083333333333C218.5859375,93.10416666666667,218.5859375,104.77083333333333,218.5859375,116.4375C218.5859375,128.10416666666666,218.5859375,139.77083333333334,218.5859375,151.4375C218.5859375,163.10416666666666,218.5859375,174.77083333333334,218.5859375,180.60416666666666L218.5859375,186.4375" marker-end="url(http://localhost:4040/SQL/execution/?id=15#arrowhead256)" style="fill: none;"/><defs><marker id="arrowhead256" viewBox="0 0 10 10" refX="9" refY="5" markerUnits="strokeWidth" markerWidth="8" markerHeight="6" orient="auto"><path d="M 0 0 L 10 5 L 0 10 z" style="stroke-width: 1; stroke-dasharray: 1, 0;"/></marker></defs></g><g class="edgePath" style="opacity: 1;"><path class="path" d="M475.9140625,2168.3680993596377L448.8391927083333,2179.262478633031C421.7643229166667,2190.156857906425,367.6145833333333,2211.9456164532126,335.75002079007777,2228.6733290599395C303.8854582468222,2245.4010416666665,294.3060727436445,2257.0677083333335,289.5163799920556,2262.9010416666665L284.72668724046673,2268.734375" marker-end="url(http://localhost:4040/SQL/execution/?id=15#arrowhead257)" style="fill: none;"/><defs><marker id="arrowhead257" viewBox="0 0 10 10" refX="9" refY="5" markerUnits="strokeWidth" markerWidth="8" markerHeight="6" orient="auto"><path d="M 0 0 L 10 5 L 0 10 z" style="stroke-width: 1; stroke-dasharray: 1, 0;"/></marker></defs></g><g class="edgePath" style="opacity: 1;"><path class="path" d="M568.21875,1914.0703125L568.21875,1927.3450520833333C568.21875,1940.6197916666667,568.21875,1967.1692708333333,568.21875,1986.27734375C568.21875,2005.3854166666667,568.21875,2017.0520833333333,568.21875,2028.71875C568.21875,2040.3854166666667,568.21875,2052.0520833333335,568.21875,2057.8854166666665L568.21875,2063.71875" marker-end="url(http://localhost:4040/SQL/execution/?id=15#arrowhead258)" style="fill: none;"/><defs><marker id="arrowhead258" viewBox="0 0 10 10" refX="9" refY="5" markerUnits="strokeWidth" markerWidth="8" markerHeight="6" orient="auto"><path d="M 0 0 L 10 5 L 0 10 z" style="stroke-width: 1; stroke-dasharray: 1, 0;"/></marker></defs></g><g class="edgePath" style="opacity: 1;"><path class="path" d="M568.21875,1674.0546875L568.21875,1684.3528645833333C568.21875,1694.6510416666667,568.21875,1715.2473958333333,568.21875,1731.37890625C568.21875,1747.5104166666667,568.21875,1759.1770833333333,568.21875,1778.28515625C568.21875,1797.3932291666667,568.21875,1823.9427083333333,568.21875,1837.2174479166667L568.21875,1850.4921875" marker-end="url(http://localhost:4040/SQL/execution/?id=15#arrowhead259)" style="fill: none;"/><defs><marker id="arrowhead259" viewBox="0 0 10 10" refX="9" refY="5" markerUnits="strokeWidth" markerWidth="8" markerHeight="6" orient="auto"><path d="M 0 0 L 10 5 L 0 10 z" style="stroke-width: 1; stroke-dasharray: 1, 0;"/></marker></defs></g><g class="edgePath" style="opacity: 1;"><path class="path" d="M568.21875,1308.3046875L568.21875,1348.3684895833333C568.21875,1388.4322916666667,568.21875,1468.5598958333333,568.21875,1518.921875C568.21875,1569.2838541666667,568.21875,1589.8802083333333,568.21875,1600.1783854166667L568.21875,1610.4765625" marker-end="url(http://localhost:4040/SQL/execution/?id=15#arrowhead260)" style="fill: none;"/><defs><marker id="arrowhead260" viewBox="0 0 10 10" refX="9" refY="5" markerUnits="strokeWidth" markerWidth="8" markerHeight="6" orient="auto"><path d="M 0 0 L 10 5 L 0 10 z" style="stroke-width: 1; stroke-dasharray: 1, 0;"/></marker></defs></g><g class="edgePath" style="opacity: 1;"><path class="path" d="M568.21875,845.765625L568.21875,857.5520833333334C568.21875,869.3385416666666,568.21875,892.9114583333334,568.21875,910.53125C568.21875,928.1510416666666,568.21875,939.8177083333334,568.21875,951.484375C568.21875,963.1510416666666,568.21875,974.8177083333334,568.21875,1020.71484375C568.21875,1066.6119791666667,568.21875,1146.7395833333333,568.21875,1186.8033854166667L568.21875,1226.8671875" marker-end="url(http://localhost:4040/SQL/execution/?id=15#arrowhead261)" style="fill: none;"/><defs><marker id="arrowhead261" viewBox="0 0 10 10" refX="9" refY="5" markerUnits="strokeWidth" markerWidth="8" markerHeight="6" orient="auto"><path d="M 0 0 L 10 5 L 0 10 z" style="stroke-width: 1; stroke-dasharray: 1, 0;"/></marker></defs></g></g><g class="edgeLabels"><g class="edgeLabel" transform="" style="opacity: 1;"><g transform="translate(0,0)" class="label"><text><tspan xml:space="preserve" dy="1em" x="1"/></text></g></g><g class="edgeLabel" transform="" style="opacity: 1;"><g transform="translate(0,0)" class="label"><text><tspan xml:space="preserve" dy="1em" x="1"/></text></g></g><g class="edgeLabel" transform="" style="opacity: 1;"><g transform="translate(0,0)" class="label"><text><tspan xml:space="preserve" dy="1em" x="1"/></text></g></g><g class="edgeLabel" transform="" style="opacity: 1;"><g transform="translate(0,0)" class="label"><text><tspan xml:space="preserve" dy="1em" x="1"/></text></g></g><g class="edgeLabel" transform="" style="opacity: 1;"><g transform="translate(0,0)" class="label"><text><tspan xml:space="preserve" dy="1em" x="1"/></text></g></g><g class="edgeLabel" transform="" style="opacity: 1;"><g transform="translate(0,0)" class="label"><text><tspan xml:space="preserve" dy="1em" x="1"/></text></g></g><g class="edgeLabel" transform="" style="opacity: 1;"><g transform="translate(0,0)" class="label"><text><tspan xml:space="preserve" dy="1em" x="1"/></text></g></g><g class="edgeLabel" transform="" style="opacity: 1;"><g transform="translate(0,0)" class="label"><text><tspan xml:space="preserve" dy="1em" x="1"/></text></g></g><g class="edgeLabel" transform="" style="opacity: 1;"><g transform="translate(0,0)" class="label"><text><tspan xml:space="preserve" dy="1em" x="1"/></text></g></g><g class="edgeLabel" transform="" style="opacity: 1;"><g transform="translate(0,0)" class="label"><text><tspan xml:space="preserve" dy="1em" x="1"/></text></g></g><g class="edgeLabel" transform="" style="opacity: 1;"><g transform="translate(0,0)" class="label"><text><tspan xml:space="preserve" dy="1em" x="1"/></text></g></g><g class="edgeLabel" transform="" style="opacity: 1;"><g transform="translate(0,0)" class="label"><text><tspan xml:space="preserve" dy="1em" x="1"/></text></g></g><g class="edgeLabel" transform="" style="opacity: 1;"><g transform="translate(0,0)" class="label"><text><tspan xml:space="preserve" dy="1em" x="1"/></text></g></g><g class="edgeLabel" transform="" style="opacity: 1;"><g transform="translate(0,0)" class="label"><text><tspan xml:space="preserve" dy="1em" x="1"/></text></g></g><g class="edgeLabel" transform="" style="opacity: 1;"><g transform="translate(0,0)" class="label"><text><tspan xml:space="preserve" dy="1em" x="1"/></text></g></g><g class="edgeLabel" transform="" style="opacity: 1;"><g transform="translate(0,0)" class="label"><text><tspan xml:space="preserve" dy="1em" x="1"/></text></g></g><g class="edgeLabel" transform="" style="opacity: 1;"><g transform="translate(0,0)" class="label"><text><tspan xml:space="preserve" dy="1em" x="1"/></text></g></g><g class="edgeLabel" transform="" style="opacity: 1;"><g transform="translate(0,0)" class="label"><text><tspan xml:space="preserve" dy="1em" x="1"/></text></g></g><g class="edgeLabel" transform="" style="opacity: 1;"><g transform="translate(0,0)" class="label"><text><tspan xml:space="preserve" dy="1em" x="1"/></text></g></g><g class="edgeLabel" transform="" style="opacity: 1;"><g transform="translate(0,0)" class="label"><text><tspan xml:space="preserve" dy="1em" x="1"/></text></g></g><g class="edgeLabel" transform="" style="opacity: 1;"><g transform="translate(0,0)" class="label"><text><tspan xml:space="preserve" dy="1em" x="1"/></text></g></g><g class="edgeLabel" transform="" style="opacity: 1;"><g transform="translate(0,0)" class="label"><text><tspan xml:space="preserve" dy="1em" x="1"/></text></g></g><g class="edgeLabel" transform="" style="opacity: 1;"><g transform="translate(0,0)" class="label"><text><tspan xml:space="preserve" dy="1em" x="1"/></text></g></g><g class="edgeLabel" transform="" style="opacity: 1;"><g transform="translate(0,0)" class="label"><text><tspan xml:space="preserve" dy="1em" x="1"/></text></g></g><g class="edgeLabel" transform="" style="opacity: 1;"><g transform="translate(0,0)" class="label"><text><tspan xml:space="preserve" dy="1em" x="1"/></text></g></g><g class="edgeLabel" transform="" style="opacity: 1;"><g transform="translate(0,0)" class="label"><text><tspan xml:space="preserve" dy="1em" x="1"/></text></g></g></g><g class="nodes"><g class="node" id="node0" transform="translate(258.625,4578.5234375)" style="opacity: 1;" data-original-title="" title=""><rect rx="5" ry="5" x="-62.109375" y="-31.7890625" width="124.21875" height="63.578125" class="label-container"/><g class="label" transform="translate(0,0)"><g transform="translate(-57.109375,-26.7890625)"><foreignObject width="114.21875" height="53.578125"><div xmlns="http://www.w3.org/1999/xhtml" style="display: inline-block; white-space: nowrap;"><br /><b>AdaptiveSparkPlan</b><br /><br /></div></foreignObject></g></g></g><g class="node" id="node1" transform="translate(258.625,4444.9453125)" style="opacity: 1;" data-original-title="" title=""><rect rx="5" ry="5" x="-76.9921875" y="-31.7890625" width="153.984375" height="63.578125" class="label-container"/><g class="label" transform="translate(0,0)"><g transform="translate(-71.9921875,-26.7890625)"><foreignObject width="143.984375" height="53.578125"><div xmlns="http://www.w3.org/1999/xhtml" style="display: inline-block; white-space: nowrap;"><br /><b>TakeOrderedAndProject</b><br /><br /></div></foreignObject></g></g></g><g class="node" id="node3" transform="translate(258.625,4276.3671875)" style="opacity: 1;" data-original-title="" title=""><rect rx="5" ry="5" x="-26.5078125" y="-31.7890625" width="53.015625" height="63.578125" class="label-container"/><g class="label" transform="translate(0,0)"><g transform="translate(-21.5078125,-26.7890625)"><foreignObject width="43.015625" height="53.578125"><div xmlns="http://www.w3.org/1999/xhtml" style="display: inline-block; white-space: nowrap;"><br /><b>Project</b><br /><br /></div></foreignObject></g></g></g><g class="node" id="node4" transform="translate(258.625,4142.7890625)" style="opacity: 1;" data-original-title="" title=""><rect rx="5" ry="5" x="-79.75" y="-31.7890625" width="159.5" height="63.578125" class="label-container"/><g class="label" transform="translate(0,0)"><g transform="translate(-74.75,-26.7890625)"><foreignObject width="149.5" height="53.578125"><div xmlns="http://www.w3.org/1999/xhtml" style="display: inline-block; white-space: nowrap;"><b>Filter</b><br /><br />number of output rows: 95</div></foreignObject></g></g></g><g class="node" id="node5" transform="translate(258.625,3974.2109375)" style="opacity: 1;" data-original-title="" title=""><rect rx="5" ry="5" x="-46.890625" y="-31.7890625" width="93.78125" height="63.578125" class="label-container"/><g class="label" transform="translate(0,0)"><g transform="translate(-41.890625,-26.7890625)"><foreignObject width="83.78125" height="53.578125"><div xmlns="http://www.w3.org/1999/xhtml" style="display: inline-block; white-space: nowrap;"><b>Window</b><br /><br />spill size: 0.0 B</div></foreignObject></g></g></g><g class="node" id="node6" transform="translate(258.625,3840.6328125)" style="opacity: 1;" data-original-title="" title=""><rect rx="5" ry="5" x="-79.75" y="-31.7890625" width="159.5" height="63.578125" class="label-container"/><g class="label" transform="translate(0,0)"><g transform="translate(-74.75,-26.7890625)"><foreignObject width="149.5" height="53.578125"><div xmlns="http://www.w3.org/1999/xhtml" style="display: inline-block; white-space: nowrap;"><b>WindowGroupLimit</b><br /><br />number of output rows: 95</div></foreignObject></g></g></g><g class="node" id="node8" transform="translate(258.625,3654.1953125)" style="opacity: 1;" data-original-title="" title=""><rect rx="5" ry="5" x="-66.6328125" y="-49.6484375" width="133.265625" height="99.296875" class="label-container"/><g class="label" transform="translate(0,0)"><g transform="translate(-61.6328125,-44.6484375)"><foreignObject width="123.265625" height="89.296875"><div xmlns="http://www.w3.org/1999/xhtml" style="display: inline-block; white-space: nowrap;"><b>Sort</b><br /><br />sort time: 0 ms<br />peak memory: 2.1 MiB<br />spill size: 0.0 B</div></foreignObject></g></g></g><g class="node" id="node9" transform="translate(258.625,3440.96875)" style="opacity: 1;" data-original-title="" title=""><rect rx="5" ry="5" x="-98.578125" y="-58.578125" width="197.15625" height="117.15625" class="label-container"/><g class="label" transform="translate(0,0)"><g transform="translate(-93.578125,-53.578125)"><foreignObject width="187.15625" height="107.15625"><div xmlns="http://www.w3.org/1999/xhtml" style="display: inline-block; white-space: nowrap;"><b>AQEShuffleRead</b><br /><br />number of partitions: 1<br />number of empty partitions: 47<br />partition data size: 6.9 KiB<br />number of coalesced partitions: 1</div></foreignObject></g></g></g><g class="node" id="node10" transform="translate(258.625,3093.078125)" style="opacity: 1;" data-original-title="" title=""><rect rx="5" ry="5" x="-104.125" y="-219.3125" width="208.25" height="438.625" class="label-container"/><g class="label" transform="translate(0,0)"><g transform="translate(-99.125,-214.3125)"><foreignObject width="198.25" height="428.625"><div xmlns="http://www.w3.org/1999/xhtml" style="display: inline-block; white-space: nowrap;"><b>Exchange</b><br /><br />shuffle records written: 95<br />remote merged reqs duration: 0 ms<br />remote merged blocks fetched: 0<br />records read: 95<br />local bytes read: 6.5 KiB<br />merged fetch fallback count: 0<br />local blocks read: 1<br />remote merged chunks fetched: 0<br />remote blocks read: 0<br />data size: 8.3 KiB<br />local merged bytes read: 0.0 B<br />local merged chunks fetched: 0<br />shuffle write time: 1 ms<br />remote merged bytes read: 0.0 B<br />local merged blocks fetched: 0<br />corrupt merged block chunks: 0<br />fetch wait time: 0 ms<br />remote bytes read: 0.0 B<br />number of partitions: 64<br />remote reqs duration: 0 ms<br />remote bytes read to disk: 0.0 B<br />shuffle bytes written: 6.5 KiB</div></foreignObject></g></g></g><g class="node" id="node11" transform="translate(258.625,2771.9765625)" style="opacity: 1;" data-original-title="" title=""><rect rx="5" ry="5" x="-79.75" y="-31.7890625" width="159.5" height="63.578125" class="label-container"/><g class="label" transform="translate(0,0)"><g transform="translate(-74.75,-26.7890625)"><foreignObject width="149.5" height="53.578125"><div xmlns="http://www.w3.org/1999/xhtml" style="display: inline-block; white-space: nowrap;"><b>WindowGroupLimit</b><br /><br />number of output rows: 95</div></foreignObject></g></g></g><g class="node" id="node13" transform="translate(258.625,2585.5390625)" style="opacity: 1;" data-original-title="" title=""><rect rx="5" ry="5" x="-67.5234375" y="-49.6484375" width="135.046875" height="99.296875" class="label-container"/><g class="label" transform="translate(0,0)"><g transform="translate(-62.5234375,-44.6484375)"><foreignObject width="125.046875" height="89.296875"><div xmlns="http://www.w3.org/1999/xhtml" style="display: inline-block; white-space: nowrap;"><b>Sort</b><br /><br />sort time: 9 ms<br />peak memory: 2.2 MiB<br />spill size: 0.0 B</div></foreignObject></g></g></g><g class="node" id="node14" transform="translate(258.625,2434.1015625)" style="opacity: 1;" data-original-title="" title=""><rect rx="5" ry="5" x="-26.5078125" y="-31.7890625" width="53.015625" height="63.578125" class="label-container"/><g class="label" transform="translate(0,0)"><g transform="translate(-21.5078125,-26.7890625)"><foreignObject width="43.015625" height="53.578125"><div xmlns="http://www.w3.org/1999/xhtml" style="display: inline-block; white-space: nowrap;"><br /><b>Project</b><br /><br /></div></foreignObject></g></g></g><g class="node" id="node15" transform="translate(258.625,2300.5234375)" style="opacity: 1;" data-original-title="" title=""><rect rx="5" ry="5" x="-87.25" y="-31.7890625" width="174.5" height="63.578125" class="label-container"/><g class="label" transform="translate(0,0)"><g transform="translate(-82.25,-26.7890625)"><foreignObject width="164.5" height="53.578125"><div xmlns="http://www.w3.org/1999/xhtml" style="display: inline-block; white-space: nowrap;"><b>BroadcastHashJoin</b><br /><br />number of output rows: 6,107</div></foreignObject></g></g></g><g class="node" id="node16" transform="translate(218.5859375,2131.2265625)" style="opacity: 1;" data-original-title="" title=""><rect rx="5" ry="5" x="-88.6171875" y="-31.7890625" width="177.234375" height="63.578125" class="label-container"/><g class="label" transform="translate(0,0)"><g transform="translate(-83.6171875,-26.7890625)"><foreignObject width="167.234375" height="53.578125"><div xmlns="http://www.w3.org/1999/xhtml" style="display: inline-block; white-space: nowrap;"><b>Filter</b><br /><br />number of output rows: 2,269</div></foreignObject></g></g></g><g class="node" id="node17" transform="translate(218.5859375,1882.28125)" style="opacity: 1;" data-original-title="" title=""><rect rx="5" ry="5" x="-94.6796875" y="-76.4375" width="189.359375" height="152.875" class="label-container"/><g class="label" transform="translate(0,0)"><g transform="translate(-89.6796875,-71.4375)"><foreignObject width="179.359375" height="142.875"><div xmlns="http://www.w3.org/1999/xhtml" style="display: inline-block; white-space: nowrap;"><b>HashAggregate</b><br /><br />spill size: 0.0 B<br />time in aggregation build: 14 ms<br />peak memory: 2.5 MiB<br />number of output rows: 9,724<br />number of sort fallback tasks: 0<br />avg hash probes per key: 1.2</div></foreignObject></g></g></g><g class="node" id="node18" transform="translate(218.5859375,1642.265625)" style="opacity: 1;" data-original-title="" title=""><rect rx="5" ry="5" x="-98.578125" y="-58.578125" width="197.15625" height="117.15625" class="label-container"/><g class="label" transform="translate(0,0)"><g transform="translate(-93.578125,-53.578125)"><foreignObject width="187.15625" height="107.15625"><div xmlns="http://www.w3.org/1999/xhtml" style="display: inline-block; white-space: nowrap;"><b>AQEShuffleRead</b><br /><br />number of partitions: 1<br />number of empty partitions: 0<br />partition data size: 385.9 KiB<br />number of coalesced partitions: 1</div></foreignObject></g></g></g><g class="node" id="node19" transform="translate(218.5859375,1267.5859375)" style="opacity: 1;" data-original-title="" title=""><rect rx="5" ry="5" x="-187.328125" y="-246.1015625" width="374.65625" height="492.203125" class="label-container"/><g class="label" transform="translate(0,0)"><g transform="translate(-182.328125,-241.1015625)"><foreignObject width="364.65625" height="482.203125"><div xmlns="http://www.w3.org/1999/xhtml" style="display: inline-block; white-space: nowrap;"><b>Exchange</b><br /><br />shuffle records written: 29,089<br />remote merged reqs duration: 0 ms<br />remote merged blocks fetched: 0<br />records read: 29,089<br />local bytes read: 367.9 KiB<br />merged fetch fallback count: 0<br />local blocks read: 8<br />remote merged chunks fetched: 0<br />remote blocks read: 0<br />data size total (min, med, max <span class="stageId-and-taskId-metrics" style="display: none;">(stageId: taskId)</span>)<br />1136.3 KiB (80.8 KiB, 144.8 KiB, 199.6 KiB <span class="stageId-and-taskId-metrics" style="display: none;">(stage 62.0: task 104)</span>)<br />local merged bytes read: 0.0 B<br />local merged chunks fetched: 0<br />shuffle write time total (min, med, max <span class="stageId-and-taskId-metrics" style="display: none;">(stageId: taskId)</span>)<br />96 ms (10 ms, 11 ms, 15 ms <span class="stageId-and-taskId-metrics" style="display: none;">(stage 62.0: task 110)</span>)<br />remote merged bytes read: 0.0 B<br />local merged blocks fetched: 0<br />corrupt merged block chunks: 0<br />fetch wait time: 0 ms<br />remote bytes read: 0.0 B<br />number of partitions: 64<br />remote reqs duration: 0 ms<br />remote bytes read to disk: 0.0 B<br />shuffle bytes written total (min, med, max <span class="stageId-and-taskId-metrics" style="display: none;">(stageId: taskId)</span>)<br />367.9 KiB (27.4 KiB, 47.3 KiB, 64.4 KiB <span class="stageId-and-taskId-metrics" style="display: none;">(stage 62.0: task 104)</span>)</div></foreignObject></g></g></g><g class="node" id="node21" transform="translate(218.5859375,778.2578125)" style="opacity: 1;" data-original-title="" title=""><rect rx="5" ry="5" x="-183.5859375" y="-103.2265625" width="367.171875" height="206.453125" class="label-container"/><g class="label" transform="translate(0,0)"><g transform="translate(-178.5859375,-98.2265625)"><foreignObject width="357.171875" height="196.453125"><div xmlns="http://www.w3.org/1999/xhtml" style="display: inline-block; white-space: nowrap;"><b>HashAggregate</b><br /><br />spill size: 0.0 B<br />time in aggregation build total (min, med, max <span class="stageId-and-taskId-metrics" style="display: none;">(stageId: taskId)</span>)<br />100 ms (1 ms, 15 ms, 18 ms <span class="stageId-and-taskId-metrics" style="display: none;">(stage 62.0: task 105)</span>)<br />peak memory total (min, med, max <span class="stageId-and-taskId-metrics" style="display: none;">(stageId: taskId)</span>)<br />18.0 MiB (2.2 MiB, 2.2 MiB, 2.2 MiB <span class="stageId-and-taskId-metrics" style="display: none;">(stage 62.0: task 111)</span>)<br />number of output rows: 29,089<br />number of sort fallback tasks: 0<br />avg hash probes per key (min, med, max <span class="stageId-and-taskId-metrics" style="display: none;">(stageId: taskId)</span>):<br />(1, 1, 1 <span class="stageId-and-taskId-metrics" style="display: none;">(stage 62.0: task 111)</span>)</div></foreignObject></g></g></g><g class="node" id="node22" transform="translate(218.5859375,573.2421875)" style="opacity: 1;" data-original-title="" title=""><rect rx="5" ry="5" x="-95.2109375" y="-31.7890625" width="190.421875" height="63.578125" class="label-container"/><g class="label" transform="translate(0,0)"><g transform="translate(-90.2109375,-26.7890625)"><foreignObject width="180.421875" height="53.578125"><div xmlns="http://www.w3.org/1999/xhtml" style="display: inline-block; white-space: nowrap;"><b>Filter</b><br /><br />number of output rows: 100,836</div></foreignObject></g></g></g><g class="node" id="node23" transform="translate(218.5859375,404.6640625)" style="opacity: 1;" data-original-title="" title=""><rect rx="5" ry="5" x="-95.2109375" y="-31.7890625" width="190.421875" height="63.578125" class="label-container"/><g class="label" transform="translate(0,0)"><g transform="translate(-90.2109375,-26.7890625)"><foreignObject width="180.421875" height="53.578125"><div xmlns="http://www.w3.org/1999/xhtml" style="display: inline-block; white-space: nowrap;"><b>InMemoryTableScan</b><br /><br />number of output rows: 100,836</div></foreignObject></g></g></g><g class="node" id="node25" transform="translate(218.5859375,227.15625)" style="opacity: 1;" data-original-title="" title=""><rect rx="5" ry="5" x="-81.015625" y="-40.71875" width="162.03125" height="81.4375" class="label-container"/><g class="label" transform="translate(0,0)"><g transform="translate(-76.015625,-35.71875)"><foreignObject width="152.03125" height="71.4375"><div xmlns="http://www.w3.org/1999/xhtml" style="display: inline-block; white-space: nowrap;"><b>ColumnarToRow</b><br /><br />number of output rows: 0<br />number of input batches: 0</div></foreignObject></g></g></g><g class="node" id="node26" transform="translate(218.5859375,40.71875)" style="opacity: 1;" data-original-title="" title=""><rect rx="5" ry="5" x="-76.03125" y="-40.71875" width="152.0625" height="81.4375" class="label-container"/><g class="label" transform="translate(0,0)"><g transform="translate(-71.03125,-35.71875)"><foreignObject width="142.0625" height="71.4375"><div xmlns="http://www.w3.org/1999/xhtml" style="display: inline-block; white-space: nowrap;"><b>Scan parquet </b><br /><br />scan time: 0 ms<br />number of output rows: 0</div></foreignObject></g></g></g><g class="node" id="node27" transform="translate(568.21875,2131.2265625)" style="opacity: 1;" data-original-title="" title=""><rect rx="5" ry="5" x="-92.3046875" y="-67.5078125" width="184.609375" height="135.015625" class="label-container"/><g class="label" transform="translate(0,0)"><g transform="translate(-87.3046875,-62.5078125)"><foreignObject width="174.609375" height="125.015625"><div xmlns="http://www.w3.org/1999/xhtml" style="display: inline-block; white-space: nowrap;"><b>BroadcastExchange</b><br /><br />time to broadcast: 3 ms<br />time to build: 11 ms<br />time to collect: 53 ms<br />number of output rows: 22,084<br />data size: 2.5 MiB</div></foreignObject></g></g></g><g class="node" id="node29" transform="translate(568.21875,1882.28125)" style="opacity: 1;" data-original-title="" title=""><rect rx="5" ry="5" x="-92.3046875" y="-31.7890625" width="184.609375" height="63.578125" class="label-container"/><g class="label" transform="translate(0,0)"><g transform="translate(-87.3046875,-26.7890625)"><foreignObject width="174.609375" height="53.578125"><div xmlns="http://www.w3.org/1999/xhtml" style="display: inline-block; white-space: nowrap;"><b>Generate</b><br /><br />number of output rows: 22,084</div></foreignObject></g></g></g><g class="node" id="node30" transform="translate(568.21875,1642.265625)" style="opacity: 1;" data-original-title="" title=""><rect rx="5" ry="5" x="-87.875" y="-31.7890625" width="175.75" height="63.578125" class="label-container"/><g class="label" transform="translate(0,0)"><g transform="translate(-82.875,-26.7890625)"><foreignObject width="165.75" height="53.578125"><div xmlns="http://www.w3.org/1999/xhtml" style="display: inline-block; white-space: nowrap;"><b>Filter</b><br /><br />number of output rows: 9,742</div></foreignObject></g></g></g><g class="node" id="node31" transform="translate(568.21875,1267.5859375)" style="opacity: 1;" data-original-title="" title=""><rect rx="5" ry="5" x="-87.875" y="-40.71875" width="175.75" height="81.4375" class="label-container"/><g class="label" transform="translate(0,0)"><g transform="translate(-82.875,-35.71875)"><foreignObject width="165.75" height="71.4375"><div xmlns="http://www.w3.org/1999/xhtml" style="display: inline-block; white-space: nowrap;"><b>ColumnarToRow</b><br /><br />number of output rows: 9,742<br />number of input batches: 3</div></foreignObject></g></g></g><g class="node" id="node32" transform="translate(568.21875,778.2578125)" style="opacity: 1;" data-original-title="" title=""><rect rx="5" ry="5" x="-87.875" y="-67.5078125" width="175.75" height="135.015625" class="label-container"/><g class="label" transform="translate(0,0)"><g transform="translate(-82.875,-62.5078125)"><foreignObject width="165.75" height="125.015625"><div xmlns="http://www.w3.org/1999/xhtml" style="display: inline-block; white-space: nowrap;"><b>Scan parquet </b><br /><br />number of files read: 1<br />scan time: 6 ms<br />metadata time: 0 ms<br />size of files read: 249.6 KiB<br />number of output rows: 9,742</div></foreignObject></g></g></g></g></g></g></svg>